<mxfile host="app.diagrams.net" modified="2024-03-02T22:46:58.019Z" agent="Mozilla/5.0 (Windows NT 10.0; Win64; x64) AppleWebKit/537.36 (KHTML, like Gecko) Chrome/122.0.0.0 Safari/537.36" etag="UJNChiMNAoM-uZklClef" version="24.0.0" type="device">
  <diagram name="Page-1" id="PBPHBdY01V-jatMgI-mp">
    <mxGraphModel dx="1632" dy="726" grid="1" gridSize="10" guides="1" tooltips="1" connect="1" arrows="1" fold="1" page="1" pageScale="1" pageWidth="850" pageHeight="1100" math="0" shadow="0">
      <root>
        <mxCell id="0" />
        <mxCell id="1" parent="0" />
        <mxCell id="DMPr3TW20HBC9eJlAmc0-1" value="TITTLE (H1)" style="rounded=0;whiteSpace=wrap;html=1;fillColor=#f8cecc;strokeColor=#b85450;" vertex="1" parent="1">
          <mxGeometry x="170" y="10" width="220" height="60" as="geometry" />
        </mxCell>
        <mxCell id="DMPr3TW20HBC9eJlAmc0-67" style="edgeStyle=orthogonalEdgeStyle;rounded=0;orthogonalLoop=1;jettySize=auto;html=1;exitX=0;exitY=0.75;exitDx=0;exitDy=0;" edge="1" parent="1" source="DMPr3TW20HBC9eJlAmc0-2">
          <mxGeometry relative="1" as="geometry">
            <mxPoint x="150" y="109.5" as="targetPoint" />
          </mxGeometry>
        </mxCell>
        <mxCell id="DMPr3TW20HBC9eJlAmc0-2" value="TITTLE H2" style="rounded=0;whiteSpace=wrap;html=1;" vertex="1" parent="1">
          <mxGeometry x="170" y="80" width="160" height="40" as="geometry" />
        </mxCell>
        <mxCell id="DMPr3TW20HBC9eJlAmc0-3" value="PARAGRAPH (P)" style="rounded=1;whiteSpace=wrap;html=1;" vertex="1" parent="1">
          <mxGeometry x="170" y="150" width="360" height="60" as="geometry" />
        </mxCell>
        <mxCell id="DMPr3TW20HBC9eJlAmc0-11" value="H3 title jujutsukaisen" style="rounded=0;whiteSpace=wrap;html=1;" vertex="1" parent="1">
          <mxGeometry x="260" y="220" width="230" height="30" as="geometry" />
        </mxCell>
        <mxCell id="DMPr3TW20HBC9eJlAmc0-12" value="DATE READ: TITLE OF BOOK" style="rounded=0;whiteSpace=wrap;html=1;" vertex="1" parent="1">
          <mxGeometry x="260" y="260" width="170" height="20" as="geometry" />
        </mxCell>
        <mxCell id="DMPr3TW20HBC9eJlAmc0-16" value="PARAGRAPH" style="rounded=1;whiteSpace=wrap;html=1;" vertex="1" parent="1">
          <mxGeometry x="170" y="302.5" width="360" height="60" as="geometry" />
        </mxCell>
        <mxCell id="DMPr3TW20HBC9eJlAmc0-20" value="LINK&amp;nbsp; &amp;nbsp; &amp;nbsp; &amp;nbsp; &amp;nbsp; &amp;nbsp; &amp;nbsp; &amp;nbsp; &amp;nbsp; &amp;nbsp; &amp;nbsp; &amp;nbsp; &amp;nbsp; &amp;nbsp; &amp;nbsp; &amp;nbsp; &amp;nbsp; &amp;nbsp; &amp;nbsp; &amp;nbsp; &amp;nbsp; &amp;nbsp; &amp;nbsp; &amp;nbsp; &amp;nbsp; &amp;nbsp; &amp;nbsp; &amp;nbsp; &amp;nbsp; &amp;nbsp; &amp;nbsp;(PARAGRAPH)" style="rounded=1;whiteSpace=wrap;html=1;" vertex="1" parent="1">
          <mxGeometry x="170" y="370" width="360" height="20" as="geometry" />
        </mxCell>
        <mxCell id="DMPr3TW20HBC9eJlAmc0-23" value="" style="curved=1;endArrow=classic;html=1;rounded=0;exitX=0;exitY=0.5;exitDx=0;exitDy=0;entryX=1;entryY=1;entryDx=0;entryDy=0;fillColor=#ffcc99;strokeColor=#36393d;" edge="1" parent="1" source="DMPr3TW20HBC9eJlAmc0-20" target="DMPr3TW20HBC9eJlAmc0-24">
          <mxGeometry width="50" height="50" relative="1" as="geometry">
            <mxPoint x="90" y="420" as="sourcePoint" />
            <mxPoint x="18.920000000000073" y="222.98000000000002" as="targetPoint" />
            <Array as="points">
              <mxPoint x="140" y="420" />
              <mxPoint x="150" y="360" />
              <mxPoint x="120" y="350" />
              <mxPoint x="110" y="180" />
            </Array>
          </mxGeometry>
        </mxCell>
        <mxCell id="DMPr3TW20HBC9eJlAmc0-24" value="TITTLE (H1)" style="rounded=0;whiteSpace=wrap;html=1;" vertex="1" parent="1">
          <mxGeometry x="-330" y="10" width="300" height="60" as="geometry" />
        </mxCell>
        <mxCell id="DMPr3TW20HBC9eJlAmc0-25" value="TITTLE H2" style="rounded=0;whiteSpace=wrap;html=1;" vertex="1" parent="1">
          <mxGeometry x="-230" y="80" width="200" height="40" as="geometry" />
        </mxCell>
        <mxCell id="DMPr3TW20HBC9eJlAmc0-31" value="PICTURE" style="whiteSpace=wrap;html=1;aspect=fixed;" vertex="1" parent="1">
          <mxGeometry x="-330" y="80" width="90" height="90" as="geometry" />
        </mxCell>
        <mxCell id="DMPr3TW20HBC9eJlAmc0-32" value="PICTURE" style="whiteSpace=wrap;html=1;aspect=fixed;" vertex="1" parent="1">
          <mxGeometry x="170" y="220" width="70" height="70" as="geometry" />
        </mxCell>
        <mxCell id="DMPr3TW20HBC9eJlAmc0-34" value="DETAILS" style="rounded=0;whiteSpace=wrap;html=1;" vertex="1" parent="1">
          <mxGeometry x="-220" y="140" width="190" height="30" as="geometry" />
        </mxCell>
        <mxCell id="DMPr3TW20HBC9eJlAmc0-35" value="LINK DETAILS" style="rounded=0;whiteSpace=wrap;html=1;" vertex="1" parent="1">
          <mxGeometry x="-330" y="180" width="180" height="20" as="geometry" />
        </mxCell>
        <mxCell id="DMPr3TW20HBC9eJlAmc0-36" value="PARAGRAPH" style="rounded=1;whiteSpace=wrap;html=1;" vertex="1" parent="1">
          <mxGeometry x="-330" y="210" width="310" height="90" as="geometry" />
        </mxCell>
        <mxCell id="DMPr3TW20HBC9eJlAmc0-37" value="H3 title" style="rounded=0;whiteSpace=wrap;html=1;" vertex="1" parent="1">
          <mxGeometry x="-330" y="320" width="150" height="25" as="geometry" />
        </mxCell>
        <mxCell id="DMPr3TW20HBC9eJlAmc0-38" value="PARAGRAPH" style="rounded=1;whiteSpace=wrap;html=1;" vertex="1" parent="1">
          <mxGeometry x="-330" y="360" width="310" height="50" as="geometry" />
        </mxCell>
        <mxCell id="DMPr3TW20HBC9eJlAmc0-39" value="PARAGRAPH" style="rounded=1;whiteSpace=wrap;html=1;" vertex="1" parent="1">
          <mxGeometry x="-330" y="430" width="310" height="50" as="geometry" />
        </mxCell>
        <mxCell id="DMPr3TW20HBC9eJlAmc0-40" value="PARAGRAPH" style="rounded=1;whiteSpace=wrap;html=1;" vertex="1" parent="1">
          <mxGeometry x="-330" y="500" width="310" height="50" as="geometry" />
        </mxCell>
        <mxCell id="DMPr3TW20HBC9eJlAmc0-41" value="PARAGRAPH" style="rounded=1;whiteSpace=wrap;html=1;" vertex="1" parent="1">
          <mxGeometry x="-330" y="570" width="310" height="50" as="geometry" />
        </mxCell>
        <mxCell id="DMPr3TW20HBC9eJlAmc0-42" value="PICTURE" style="whiteSpace=wrap;html=1;aspect=fixed;" vertex="1" parent="1">
          <mxGeometry x="170" y="430" width="70" height="70" as="geometry" />
        </mxCell>
        <mxCell id="DMPr3TW20HBC9eJlAmc0-43" value="TITTLE H2" style="rounded=0;whiteSpace=wrap;html=1;fillColor=#60a917;fontColor=#ffffff;strokeColor=#2D7600;" vertex="1" parent="1">
          <mxGeometry x="250" y="430" width="170" height="40" as="geometry" />
        </mxCell>
        <mxCell id="DMPr3TW20HBC9eJlAmc0-44" value="DATE READ: TITLE OF BOOK" style="rounded=0;whiteSpace=wrap;html=1;" vertex="1" parent="1">
          <mxGeometry x="250" y="480" width="170" height="20" as="geometry" />
        </mxCell>
        <mxCell id="DMPr3TW20HBC9eJlAmc0-45" value="PARAGRAPH" style="rounded=1;whiteSpace=wrap;html=1;" vertex="1" parent="1">
          <mxGeometry x="170" y="530" width="360" height="60" as="geometry" />
        </mxCell>
        <mxCell id="DMPr3TW20HBC9eJlAmc0-46" value="LINK&amp;nbsp; &amp;nbsp; &amp;nbsp; &amp;nbsp; &amp;nbsp; &amp;nbsp; &amp;nbsp; &amp;nbsp; &amp;nbsp; &amp;nbsp; &amp;nbsp; &amp;nbsp; &amp;nbsp; &amp;nbsp; &amp;nbsp; &amp;nbsp; &amp;nbsp; &amp;nbsp; &amp;nbsp; &amp;nbsp; &amp;nbsp; &amp;nbsp; &amp;nbsp; &amp;nbsp; &amp;nbsp; &amp;nbsp; &amp;nbsp; &amp;nbsp; &amp;nbsp; &amp;nbsp; &amp;nbsp;(PARAGRAPH)" style="rounded=1;whiteSpace=wrap;html=1;" vertex="1" parent="1">
          <mxGeometry x="170" y="600" width="360" height="20" as="geometry" />
        </mxCell>
        <mxCell id="DMPr3TW20HBC9eJlAmc0-47" value="" style="curved=1;endArrow=classic;html=1;rounded=0;fillColor=#008a00;strokeColor=#005700;exitX=0;exitY=0;exitDx=0;exitDy=0;entryX=1.01;entryY=0.383;entryDx=0;entryDy=0;entryPerimeter=0;" edge="1" parent="1" source="DMPr3TW20HBC9eJlAmc0-46" target="DMPr3TW20HBC9eJlAmc0-24">
          <mxGeometry width="50" height="50" relative="1" as="geometry">
            <mxPoint x="100" y="630" as="sourcePoint" />
            <mxPoint x="150" y="580" as="targetPoint" />
            <Array as="points">
              <mxPoint x="150" y="630" />
              <mxPoint x="100" y="430" />
              <mxPoint x="60" y="300" />
            </Array>
          </mxGeometry>
        </mxCell>
        <mxCell id="DMPr3TW20HBC9eJlAmc0-48" value="PICTURE" style="whiteSpace=wrap;html=1;aspect=fixed;" vertex="1" parent="1">
          <mxGeometry x="170" y="660" width="70" height="70" as="geometry" />
        </mxCell>
        <mxCell id="DMPr3TW20HBC9eJlAmc0-49" value="TITTLE H2" style="rounded=0;whiteSpace=wrap;html=1;fillColor=#1ba1e2;fontColor=#ffffff;strokeColor=#006EAF;" vertex="1" parent="1">
          <mxGeometry x="255" y="660" width="175" height="40" as="geometry" />
        </mxCell>
        <mxCell id="DMPr3TW20HBC9eJlAmc0-50" value="DATE READ: TITLE OF BOOK" style="rounded=0;whiteSpace=wrap;html=1;" vertex="1" parent="1">
          <mxGeometry x="255" y="710" width="175" height="20" as="geometry" />
        </mxCell>
        <mxCell id="DMPr3TW20HBC9eJlAmc0-52" value="PARAGRAPH" style="rounded=1;whiteSpace=wrap;html=1;" vertex="1" parent="1">
          <mxGeometry x="170" y="750" width="360" height="60" as="geometry" />
        </mxCell>
        <mxCell id="DMPr3TW20HBC9eJlAmc0-53" value="LINK&amp;nbsp; &amp;nbsp; &amp;nbsp; &amp;nbsp; &amp;nbsp; &amp;nbsp; &amp;nbsp; &amp;nbsp; &amp;nbsp; &amp;nbsp; &amp;nbsp; &amp;nbsp; &amp;nbsp; &amp;nbsp; &amp;nbsp; &amp;nbsp; &amp;nbsp; &amp;nbsp; &amp;nbsp; &amp;nbsp; &amp;nbsp; &amp;nbsp; &amp;nbsp; &amp;nbsp; &amp;nbsp; &amp;nbsp; &amp;nbsp; &amp;nbsp; &amp;nbsp; &amp;nbsp; &amp;nbsp;(PARAGRAPH)" style="rounded=1;whiteSpace=wrap;html=1;" vertex="1" parent="1">
          <mxGeometry x="170" y="820" width="360" height="20" as="geometry" />
        </mxCell>
        <mxCell id="DMPr3TW20HBC9eJlAmc0-58" value="" style="curved=1;endArrow=classic;html=1;rounded=0;fillColor=#1ba1e2;strokeColor=#006EAF;exitX=0;exitY=1;exitDx=0;exitDy=0;entryX=1;entryY=0.75;entryDx=0;entryDy=0;" edge="1" parent="1" source="DMPr3TW20HBC9eJlAmc0-53" target="DMPr3TW20HBC9eJlAmc0-24">
          <mxGeometry width="50" height="50" relative="1" as="geometry">
            <mxPoint x="167" y="827" as="sourcePoint" />
            <mxPoint x="-30" y="250" as="targetPoint" />
            <Array as="points">
              <mxPoint x="147" y="847" />
              <mxPoint x="70" y="420" />
            </Array>
          </mxGeometry>
        </mxCell>
        <mxCell id="DMPr3TW20HBC9eJlAmc0-60" value="TITTLE H2" style="rounded=0;whiteSpace=wrap;html=1;fillColor=#e51400;fontColor=#ffffff;strokeColor=#B20000;" vertex="1" parent="1">
          <mxGeometry x="255" y="870" width="175" height="40" as="geometry" />
        </mxCell>
        <mxCell id="DMPr3TW20HBC9eJlAmc0-61" value="PICTURE" style="whiteSpace=wrap;html=1;aspect=fixed;" vertex="1" parent="1">
          <mxGeometry x="170" y="870" width="70" height="70" as="geometry" />
        </mxCell>
        <mxCell id="DMPr3TW20HBC9eJlAmc0-62" value="DATE READ: TITLE OF BOOK" style="rounded=0;whiteSpace=wrap;html=1;" vertex="1" parent="1">
          <mxGeometry x="255" y="920" width="175" height="20" as="geometry" />
        </mxCell>
        <mxCell id="DMPr3TW20HBC9eJlAmc0-64" value="PARAGRAPH" style="rounded=1;whiteSpace=wrap;html=1;" vertex="1" parent="1">
          <mxGeometry x="170" y="960" width="360" height="60" as="geometry" />
        </mxCell>
        <mxCell id="DMPr3TW20HBC9eJlAmc0-65" value="LINK&amp;nbsp; &amp;nbsp; &amp;nbsp; &amp;nbsp; &amp;nbsp; &amp;nbsp; &amp;nbsp; &amp;nbsp; &amp;nbsp; &amp;nbsp; &amp;nbsp; &amp;nbsp; &amp;nbsp; &amp;nbsp; &amp;nbsp; &amp;nbsp; &amp;nbsp; &amp;nbsp; &amp;nbsp; &amp;nbsp; &amp;nbsp; &amp;nbsp; &amp;nbsp; &amp;nbsp; &amp;nbsp; &amp;nbsp; &amp;nbsp; &amp;nbsp; &amp;nbsp; &amp;nbsp; &amp;nbsp;(PARAGRAPH)" style="rounded=1;whiteSpace=wrap;html=1;" vertex="1" parent="1">
          <mxGeometry x="170" y="1030" width="360" height="20" as="geometry" />
        </mxCell>
        <mxCell id="DMPr3TW20HBC9eJlAmc0-66" value="" style="curved=1;endArrow=classic;html=1;rounded=0;fillColor=#e51400;strokeColor=#B20000;exitX=0;exitY=1;exitDx=0;exitDy=0;entryX=1;entryY=0.25;entryDx=0;entryDy=0;" edge="1" parent="1" target="DMPr3TW20HBC9eJlAmc0-24">
          <mxGeometry width="50" height="50" relative="1" as="geometry">
            <mxPoint x="170" y="1045" as="sourcePoint" />
            <mxPoint x="20" y="30" as="targetPoint" />
            <Array as="points">
              <mxPoint x="147" y="1052" />
              <mxPoint x="97" y="1002" />
            </Array>
          </mxGeometry>
        </mxCell>
        <mxCell id="DMPr3TW20HBC9eJlAmc0-68" value="DATA BASE" style="rounded=0;whiteSpace=wrap;html=1;" vertex="1" parent="1">
          <mxGeometry x="1120" y="10" width="300" height="60" as="geometry" />
        </mxCell>
        <mxCell id="DMPr3TW20HBC9eJlAmc0-69" value="blackclover" style="rounded=0;whiteSpace=wrap;html=1;fillColor=#d5e8d4;gradientColor=#97d077;strokeColor=#82b366;" vertex="1" parent="1">
          <mxGeometry x="1110" y="120" width="120" height="60" as="geometry" />
        </mxCell>
        <mxCell id="DMPr3TW20HBC9eJlAmc0-71" value="jujutsukaisen" style="rounded=0;whiteSpace=wrap;html=1;fillColor=#dae8fc;gradientColor=#7ea6e0;strokeColor=#6c8ebf;" vertex="1" parent="1">
          <mxGeometry x="900" y="120" width="120" height="60" as="geometry" />
        </mxCell>
        <mxCell id="DMPr3TW20HBC9eJlAmc0-72" value="sololeveling" style="rounded=0;whiteSpace=wrap;html=1;fillColor=#e6d0de;gradientColor=#d5739d;strokeColor=#996185;" vertex="1" parent="1">
          <mxGeometry x="1540" y="120" width="120" height="60" as="geometry" />
        </mxCell>
        <mxCell id="DMPr3TW20HBC9eJlAmc0-73" value="onepiece" style="rounded=0;whiteSpace=wrap;html=1;fillColor=#ffcd28;gradientColor=#ffa500;strokeColor=#d79b00;" vertex="1" parent="1">
          <mxGeometry x="1350" y="120" width="120" height="60" as="geometry" />
        </mxCell>
        <mxCell id="DMPr3TW20HBC9eJlAmc0-75" value="" style="endArrow=classic;html=1;rounded=0;fillColor=#e6d0de;gradientColor=#d5739d;strokeColor=#996185;fontStyle=1;exitX=1;exitY=1;exitDx=0;exitDy=0;entryX=0.5;entryY=0;entryDx=0;entryDy=0;" edge="1" parent="1" source="DMPr3TW20HBC9eJlAmc0-68" target="DMPr3TW20HBC9eJlAmc0-72">
          <mxGeometry width="50" height="50" relative="1" as="geometry">
            <mxPoint x="1630" y="10.000000000000114" as="sourcePoint" />
            <mxPoint x="1430" y="65.00000000000011" as="targetPoint" />
          </mxGeometry>
        </mxCell>
        <mxCell id="DMPr3TW20HBC9eJlAmc0-79" value="" style="endArrow=classic;html=1;rounded=0;fillColor=#d5e8d4;gradientColor=#97d077;strokeColor=#82b366;fontStyle=1;exitX=0.432;exitY=1.033;exitDx=0;exitDy=0;entryX=0.5;entryY=0;entryDx=0;entryDy=0;exitPerimeter=0;" edge="1" parent="1" source="DMPr3TW20HBC9eJlAmc0-68" target="DMPr3TW20HBC9eJlAmc0-69">
          <mxGeometry width="50" height="50" relative="1" as="geometry">
            <mxPoint x="1130" y="80" as="sourcePoint" />
            <mxPoint x="990" y="135" as="targetPoint" />
          </mxGeometry>
        </mxCell>
        <mxCell id="DMPr3TW20HBC9eJlAmc0-80" value="" style="endArrow=classic;html=1;rounded=0;fillColor=#ffcd28;gradientColor=#ffa500;strokeColor=#d79b00;fontStyle=1;exitX=0.432;exitY=1.033;exitDx=0;exitDy=0;entryX=0.5;entryY=0;entryDx=0;entryDy=0;exitPerimeter=0;" edge="1" parent="1" target="DMPr3TW20HBC9eJlAmc0-73">
          <mxGeometry width="50" height="50" relative="1" as="geometry">
            <mxPoint x="1305" y="73.5" as="sourcePoint" />
            <mxPoint x="1235" y="126.5" as="targetPoint" />
          </mxGeometry>
        </mxCell>
        <mxCell id="DMPr3TW20HBC9eJlAmc0-81" value="" style="endArrow=classic;html=1;rounded=0;fillColor=#dae8fc;gradientColor=#7ea6e0;strokeColor=#6c8ebf;fontStyle=1;exitX=0;exitY=1;exitDx=0;exitDy=0;entryX=0.5;entryY=0;entryDx=0;entryDy=0;" edge="1" parent="1" target="DMPr3TW20HBC9eJlAmc0-71">
          <mxGeometry width="50" height="50" relative="1" as="geometry">
            <mxPoint x="1120" y="65" as="sourcePoint" />
            <mxPoint x="920" y="120" as="targetPoint" />
          </mxGeometry>
        </mxCell>
        <mxCell id="DMPr3TW20HBC9eJlAmc0-82" value="id" style="rounded=0;whiteSpace=wrap;html=1;" vertex="1" parent="1">
          <mxGeometry x="850" y="300" width="70" height="30" as="geometry" />
        </mxCell>
        <mxCell id="DMPr3TW20HBC9eJlAmc0-83" value="name" style="rounded=0;whiteSpace=wrap;html=1;" vertex="1" parent="1">
          <mxGeometry x="925" y="300" width="70" height="30" as="geometry" />
        </mxCell>
        <mxCell id="DMPr3TW20HBC9eJlAmc0-84" value="village" style="rounded=0;whiteSpace=wrap;html=1;" vertex="1" parent="1">
          <mxGeometry x="1000" y="300" width="70" height="30" as="geometry" />
        </mxCell>
        <mxCell id="DMPr3TW20HBC9eJlAmc0-85" style="edgeStyle=orthogonalEdgeStyle;rounded=0;orthogonalLoop=1;jettySize=auto;html=1;exitX=0.5;exitY=1;exitDx=0;exitDy=0;" edge="1" parent="1" source="DMPr3TW20HBC9eJlAmc0-83" target="DMPr3TW20HBC9eJlAmc0-83">
          <mxGeometry relative="1" as="geometry" />
        </mxCell>
        <mxCell id="DMPr3TW20HBC9eJlAmc0-86" value="id" style="rounded=0;whiteSpace=wrap;html=1;" vertex="1" parent="1">
          <mxGeometry x="1090" y="300" width="70" height="30" as="geometry" />
        </mxCell>
        <mxCell id="DMPr3TW20HBC9eJlAmc0-87" value="name" style="rounded=0;whiteSpace=wrap;html=1;" vertex="1" parent="1">
          <mxGeometry x="1165" y="300" width="70" height="30" as="geometry" />
        </mxCell>
        <mxCell id="DMPr3TW20HBC9eJlAmc0-88" value="village" style="rounded=0;whiteSpace=wrap;html=1;" vertex="1" parent="1">
          <mxGeometry x="1240" y="300" width="70" height="30" as="geometry" />
        </mxCell>
        <mxCell id="DMPr3TW20HBC9eJlAmc0-89" value="id" style="rounded=0;whiteSpace=wrap;html=1;" vertex="1" parent="1">
          <mxGeometry x="1320" y="300" width="70" height="30" as="geometry" />
        </mxCell>
        <mxCell id="DMPr3TW20HBC9eJlAmc0-90" value="name" style="rounded=0;whiteSpace=wrap;html=1;" vertex="1" parent="1">
          <mxGeometry x="1395" y="300" width="70" height="30" as="geometry" />
        </mxCell>
        <mxCell id="DMPr3TW20HBC9eJlAmc0-91" value="village" style="rounded=0;whiteSpace=wrap;html=1;" vertex="1" parent="1">
          <mxGeometry x="1470" y="300" width="70" height="30" as="geometry" />
        </mxCell>
        <mxCell id="DMPr3TW20HBC9eJlAmc0-92" value="id" style="rounded=0;whiteSpace=wrap;html=1;" vertex="1" parent="1">
          <mxGeometry x="1560" y="300" width="70" height="30" as="geometry" />
        </mxCell>
        <mxCell id="DMPr3TW20HBC9eJlAmc0-93" value="name" style="rounded=0;whiteSpace=wrap;html=1;" vertex="1" parent="1">
          <mxGeometry x="1635" y="300" width="70" height="30" as="geometry" />
        </mxCell>
        <mxCell id="DMPr3TW20HBC9eJlAmc0-94" value="village" style="rounded=0;whiteSpace=wrap;html=1;" vertex="1" parent="1">
          <mxGeometry x="1710" y="300" width="70" height="30" as="geometry" />
        </mxCell>
        <mxCell id="DMPr3TW20HBC9eJlAmc0-95" value="" style="endArrow=classic;html=1;rounded=0;exitX=0.25;exitY=1;exitDx=0;exitDy=0;entryX=0.5;entryY=0;entryDx=0;entryDy=0;" edge="1" parent="1" source="DMPr3TW20HBC9eJlAmc0-71" target="DMPr3TW20HBC9eJlAmc0-82">
          <mxGeometry width="50" height="50" relative="1" as="geometry">
            <mxPoint x="910" y="210" as="sourcePoint" />
            <mxPoint x="910" y="260" as="targetPoint" />
          </mxGeometry>
        </mxCell>
        <mxCell id="DMPr3TW20HBC9eJlAmc0-96" value="" style="endArrow=classic;html=1;rounded=0;exitX=0.25;exitY=1;exitDx=0;exitDy=0;entryX=0.5;entryY=0;entryDx=0;entryDy=0;" edge="1" parent="1" target="DMPr3TW20HBC9eJlAmc0-83">
          <mxGeometry width="50" height="50" relative="1" as="geometry">
            <mxPoint x="965" y="180" as="sourcePoint" />
            <mxPoint x="920" y="300" as="targetPoint" />
          </mxGeometry>
        </mxCell>
        <mxCell id="DMPr3TW20HBC9eJlAmc0-97" value="" style="endArrow=classic;html=1;rounded=0;exitX=0.75;exitY=1;exitDx=0;exitDy=0;entryX=0.5;entryY=0;entryDx=0;entryDy=0;" edge="1" parent="1" source="DMPr3TW20HBC9eJlAmc0-71" target="DMPr3TW20HBC9eJlAmc0-84">
          <mxGeometry width="50" height="50" relative="1" as="geometry">
            <mxPoint x="1020" y="182.5" as="sourcePoint" />
            <mxPoint x="1015" y="302.5" as="targetPoint" />
          </mxGeometry>
        </mxCell>
        <mxCell id="DMPr3TW20HBC9eJlAmc0-98" value="" style="endArrow=classic;html=1;rounded=0;exitX=0.25;exitY=1;exitDx=0;exitDy=0;entryX=0.5;entryY=0;entryDx=0;entryDy=0;" edge="1" parent="1" target="DMPr3TW20HBC9eJlAmc0-86">
          <mxGeometry width="50" height="50" relative="1" as="geometry">
            <mxPoint x="1155" y="180" as="sourcePoint" />
            <mxPoint x="1110" y="300" as="targetPoint" />
          </mxGeometry>
        </mxCell>
        <mxCell id="DMPr3TW20HBC9eJlAmc0-99" value="" style="endArrow=classic;html=1;rounded=0;entryX=0.5;entryY=0;entryDx=0;entryDy=0;exitX=0.592;exitY=1.033;exitDx=0;exitDy=0;exitPerimeter=0;" edge="1" parent="1" source="DMPr3TW20HBC9eJlAmc0-69" target="DMPr3TW20HBC9eJlAmc0-87">
          <mxGeometry width="50" height="50" relative="1" as="geometry">
            <mxPoint x="1180" y="200" as="sourcePoint" />
            <mxPoint x="1185" y="302.5" as="targetPoint" />
          </mxGeometry>
        </mxCell>
        <mxCell id="DMPr3TW20HBC9eJlAmc0-100" value="" style="endArrow=classic;html=1;rounded=0;exitX=0.75;exitY=1;exitDx=0;exitDy=0;entryX=0.389;entryY=-0.1;entryDx=0;entryDy=0;entryPerimeter=0;" edge="1" parent="1" source="DMPr3TW20HBC9eJlAmc0-69" target="DMPr3TW20HBC9eJlAmc0-88">
          <mxGeometry width="50" height="50" relative="1" as="geometry">
            <mxPoint x="1220" y="180" as="sourcePoint" />
            <mxPoint x="1260" y="250" as="targetPoint" />
          </mxGeometry>
        </mxCell>
        <mxCell id="DMPr3TW20HBC9eJlAmc0-102" value="" style="endArrow=classic;html=1;rounded=0;exitX=0.25;exitY=1;exitDx=0;exitDy=0;entryX=0.571;entryY=0;entryDx=0;entryDy=0;entryPerimeter=0;" edge="1" parent="1" source="DMPr3TW20HBC9eJlAmc0-73" target="DMPr3TW20HBC9eJlAmc0-89">
          <mxGeometry width="50" height="50" relative="1" as="geometry">
            <mxPoint x="1380" y="182.5" as="sourcePoint" />
            <mxPoint x="1350" y="302.5" as="targetPoint" />
          </mxGeometry>
        </mxCell>
        <mxCell id="DMPr3TW20HBC9eJlAmc0-103" value="" style="endArrow=classic;html=1;rounded=0;" edge="1" parent="1" source="DMPr3TW20HBC9eJlAmc0-73" target="DMPr3TW20HBC9eJlAmc0-90">
          <mxGeometry width="50" height="50" relative="1" as="geometry">
            <mxPoint x="1406" y="182" as="sourcePoint" />
            <mxPoint x="1425" y="300" as="targetPoint" />
          </mxGeometry>
        </mxCell>
        <mxCell id="DMPr3TW20HBC9eJlAmc0-104" value="" style="endArrow=classic;html=1;rounded=0;exitX=0.873;exitY=1.012;exitDx=0;exitDy=0;exitPerimeter=0;" edge="1" parent="1" source="DMPr3TW20HBC9eJlAmc0-73" target="DMPr3TW20HBC9eJlAmc0-91">
          <mxGeometry width="50" height="50" relative="1" as="geometry">
            <mxPoint x="1450" y="190" as="sourcePoint" />
            <mxPoint x="1492" y="307" as="targetPoint" />
          </mxGeometry>
        </mxCell>
        <mxCell id="DMPr3TW20HBC9eJlAmc0-107" value="" style="endArrow=classic;html=1;rounded=0;exitX=0.425;exitY=1.033;exitDx=0;exitDy=0;entryX=0.25;entryY=0;entryDx=0;entryDy=0;exitPerimeter=0;" edge="1" parent="1" source="DMPr3TW20HBC9eJlAmc0-72" target="DMPr3TW20HBC9eJlAmc0-92">
          <mxGeometry width="50" height="50" relative="1" as="geometry">
            <mxPoint x="1580" y="182.5" as="sourcePoint" />
            <mxPoint x="1560" y="303" as="targetPoint" />
          </mxGeometry>
        </mxCell>
        <mxCell id="DMPr3TW20HBC9eJlAmc0-108" value="" style="endArrow=classic;html=1;rounded=0;entryX=0.25;entryY=0;entryDx=0;entryDy=0;exitX=0.685;exitY=1.012;exitDx=0;exitDy=0;exitPerimeter=0;" edge="1" parent="1" source="DMPr3TW20HBC9eJlAmc0-72" target="DMPr3TW20HBC9eJlAmc0-93">
          <mxGeometry width="50" height="50" relative="1" as="geometry">
            <mxPoint x="1610" y="180" as="sourcePoint" />
            <mxPoint x="1624" y="300" as="targetPoint" />
          </mxGeometry>
        </mxCell>
        <mxCell id="DMPr3TW20HBC9eJlAmc0-109" value="" style="endArrow=classic;html=1;rounded=0;exitX=0.904;exitY=0.971;exitDx=0;exitDy=0;exitPerimeter=0;entryX=0.5;entryY=0;entryDx=0;entryDy=0;" edge="1" parent="1" source="DMPr3TW20HBC9eJlAmc0-72" target="DMPr3TW20HBC9eJlAmc0-94">
          <mxGeometry width="50" height="50" relative="1" as="geometry">
            <mxPoint x="1656" y="183.5" as="sourcePoint" />
            <mxPoint x="1700" y="302.5" as="targetPoint" />
          </mxGeometry>
        </mxCell>
      </root>
    </mxGraphModel>
  </diagram>
</mxfile>
